<mxfile host="65bd71144e">
    <diagram id="SfjQcnU6rlgzL2x3MP6b" name="Page-1">
        <mxGraphModel dx="709" dy="202" grid="1" gridSize="10" guides="1" tooltips="1" connect="1" arrows="1" fold="1" page="1" pageScale="1" pageWidth="850" pageHeight="1100" math="0" shadow="0">
            <root>
                <mxCell id="0"/>
                <mxCell id="1" parent="0"/>
                <mxCell id="2" value="visibility timeout" style="rounded=0;whiteSpace=wrap;html=1;strokeColor=#FF00FF;" vertex="1" parent="1">
                    <mxGeometry x="90" y="90" width="330" height="30" as="geometry"/>
                </mxCell>
                <mxCell id="3" value="" style="endArrow=classic;html=1;endFill=1;" edge="1" parent="1">
                    <mxGeometry width="50" height="50" relative="1" as="geometry">
                        <mxPoint x="50" y="120" as="sourcePoint"/>
                        <mxPoint x="630" y="120" as="targetPoint"/>
                    </mxGeometry>
                </mxCell>
                <mxCell id="4" value="" style="endArrow=classic;html=1;" edge="1" parent="1">
                    <mxGeometry width="50" height="50" relative="1" as="geometry">
                        <mxPoint x="470" y="40" as="sourcePoint"/>
                        <mxPoint x="470" y="120" as="targetPoint"/>
                    </mxGeometry>
                </mxCell>
                <mxCell id="5" value="" style="endArrow=classic;html=1;" edge="1" parent="1">
                    <mxGeometry width="50" height="50" relative="1" as="geometry">
                        <mxPoint x="360" y="40" as="sourcePoint"/>
                        <mxPoint x="360" y="90" as="targetPoint"/>
                    </mxGeometry>
                </mxCell>
                <mxCell id="6" value="" style="endArrow=classic;html=1;" edge="1" parent="1">
                    <mxGeometry width="50" height="50" relative="1" as="geometry">
                        <mxPoint x="60" y="40" as="sourcePoint"/>
                        <mxPoint x="60" y="120" as="targetPoint"/>
                    </mxGeometry>
                </mxCell>
                <mxCell id="7" value="" style="endArrow=classic;html=1;" edge="1" parent="1">
                    <mxGeometry width="50" height="50" relative="1" as="geometry">
                        <mxPoint x="180" y="40" as="sourcePoint"/>
                        <mxPoint x="180" y="90" as="targetPoint"/>
                    </mxGeometry>
                </mxCell>
                <mxCell id="8" value="receive &lt;br style=&quot;font-size: 10px&quot;&gt;message&lt;br&gt;request" style="text;html=1;align=center;verticalAlign=middle;resizable=0;points=[];autosize=1;strokeColor=none;fillColor=none;fontSize=10;" vertex="1" parent="1">
                    <mxGeometry x="440" y="2" width="60" height="40" as="geometry"/>
                </mxCell>
                <mxCell id="9" value="receive &lt;br style=&quot;font-size: 10px&quot;&gt;message&lt;br&gt;request" style="text;html=1;align=center;verticalAlign=middle;resizable=0;points=[];autosize=1;strokeColor=none;fillColor=none;fontSize=10;" vertex="1" parent="1">
                    <mxGeometry x="330" y="2" width="60" height="40" as="geometry"/>
                </mxCell>
                <mxCell id="10" value="receive &lt;br style=&quot;font-size: 10px&quot;&gt;message&lt;br&gt;request" style="text;html=1;align=center;verticalAlign=middle;resizable=0;points=[];autosize=1;strokeColor=none;fillColor=none;fontSize=10;" vertex="1" parent="1">
                    <mxGeometry x="150" y="2" width="60" height="40" as="geometry"/>
                </mxCell>
                <mxCell id="11" value="receive &lt;br style=&quot;font-size: 10px&quot;&gt;message&lt;br&gt;request" style="text;html=1;align=center;verticalAlign=middle;resizable=0;points=[];autosize=1;strokeColor=none;fillColor=none;fontSize=10;" vertex="1" parent="1">
                    <mxGeometry x="30" y="2" width="60" height="40" as="geometry"/>
                </mxCell>
                <mxCell id="16" value="" style="group" vertex="1" connectable="0" parent="1">
                    <mxGeometry x="55" y="130" width="35" height="30" as="geometry"/>
                </mxCell>
                <mxCell id="13" value="" style="rounded=0;whiteSpace=wrap;html=1;fontSize=10;strokeColor=#b85450;fillColor=#f8cecc;sketch=0;" vertex="1" parent="16">
                    <mxGeometry width="10" height="30" as="geometry"/>
                </mxCell>
                <mxCell id="14" value="" style="rounded=0;whiteSpace=wrap;html=1;fontSize=10;strokeColor=#b85450;fillColor=#f8cecc;sketch=1;dashed=1;" vertex="1" parent="16">
                    <mxGeometry x="12" width="10" height="30" as="geometry"/>
                </mxCell>
                <mxCell id="15" value="" style="rounded=0;whiteSpace=wrap;html=1;fontSize=10;strokeColor=#b85450;fillColor=#f8cecc;sketch=1;dashed=1;" vertex="1" parent="16">
                    <mxGeometry x="25" width="10" height="30" as="geometry"/>
                </mxCell>
                <mxCell id="17" value="" style="group" vertex="1" connectable="0" parent="1">
                    <mxGeometry x="452.5" y="130" width="35" height="30" as="geometry"/>
                </mxCell>
                <mxCell id="18" value="" style="rounded=0;whiteSpace=wrap;html=1;fontSize=10;strokeColor=#b85450;fillColor=#f8cecc;sketch=0;" vertex="1" parent="17">
                    <mxGeometry width="10" height="30" as="geometry"/>
                </mxCell>
                <mxCell id="19" value="" style="rounded=0;whiteSpace=wrap;html=1;fontSize=10;strokeColor=#b85450;fillColor=#f8cecc;sketch=1;dashed=1;" vertex="1" parent="17">
                    <mxGeometry x="12" width="10" height="30" as="geometry"/>
                </mxCell>
                <mxCell id="20" value="" style="rounded=0;whiteSpace=wrap;html=1;fontSize=10;strokeColor=#b85450;fillColor=#f8cecc;sketch=1;dashed=1;" vertex="1" parent="17">
                    <mxGeometry x="25" width="10" height="30" as="geometry"/>
                </mxCell>
                <mxCell id="22" value="message returned" style="text;html=1;align=center;verticalAlign=middle;resizable=0;points=[];autosize=1;strokeColor=none;fillColor=none;fontSize=10;" vertex="1" parent="1">
                    <mxGeometry x="22.5" y="161" width="100" height="20" as="geometry"/>
                </mxCell>
                <mxCell id="23" value="message returned" style="text;html=1;align=center;verticalAlign=middle;resizable=0;points=[];autosize=1;strokeColor=none;fillColor=none;fontSize=10;" vertex="1" parent="1">
                    <mxGeometry x="425" y="160" width="100" height="20" as="geometry"/>
                </mxCell>
                <mxCell id="24" value="message &lt;br&gt;not returned" style="text;html=1;align=center;verticalAlign=middle;resizable=0;points=[];autosize=1;strokeColor=none;fillColor=none;fontSize=10;" vertex="1" parent="1">
                    <mxGeometry x="145" y="125" width="70" height="30" as="geometry"/>
                </mxCell>
                <mxCell id="25" value="message &lt;br&gt;not returned" style="text;html=1;align=center;verticalAlign=middle;resizable=0;points=[];autosize=1;strokeColor=none;fillColor=none;fontSize=10;" vertex="1" parent="1">
                    <mxGeometry x="325" y="125" width="70" height="30" as="geometry"/>
                </mxCell>
                <mxCell id="26" value="time" style="text;html=1;align=center;verticalAlign=middle;resizable=0;points=[];autosize=1;strokeColor=none;fillColor=none;fontSize=10;" vertex="1" parent="1">
                    <mxGeometry x="595" y="130" width="30" height="20" as="geometry"/>
                </mxCell>
            </root>
        </mxGraphModel>
    </diagram>
</mxfile>